<?xml version="1.0" encoding="UTF-8"?>
<!DOCTYPE svg PUBLIC "-//W3C//DTD SVG 1.1//EN" "http://www.w3.org/Graphics/SVG/1.1/DTD/svg11.dtd">
<!-- Creator: CorelDRAW 2017 -->
<svg xmlns="http://www.w3.org/2000/svg" xml:space="preserve" width="28.6845mm" height="28.6845mm" version="1.1" style="shape-rendering:geometricPrecision; text-rendering:geometricPrecision; image-rendering:optimizeQuality; fill-rule:evenodd; clip-rule:evenodd"
viewBox="0 0 427 427"
 xmlns:xlink="http://www.w3.org/1999/xlink">
 <defs>
  <style type="text/css">
   <![CDATA[
    .str0 {stroke:#B8100D;stroke-width:11.1772}
    .fil1 {fill:none}
    .fil0 {fill:#B8100D}
   ]]>
  </style>
   <clipPath id="id0">
    <path d="M214 6c115,0 208,93 208,208 0,115 -93,208 -208,208 -115,0 -208,-93 -208,-208 0,-115 93,-208 208,-208z"/>
   </clipPath>
 </defs>
 <g id="Layer_x0020_1">
  <metadata id="CorelCorpID_0Corel-Layer"/>
  <path class="fil0" d="M208 96c-40,4 -69,42 -66,86 2,41 33,80 76,76 40,-3 68,-42 66,-86 -2,-41 -33,-80 -76,-76z"/>
  <g>
  </g>
  <g style="clip-path:url(#id0)">
   <g>
    <path class="fil0" d="M162 295c-3,-2 -6,-5 -9,-8 -3,-3 -5,-5 -8,-5 -6,1 -22,8 -27,10 -18,9 -32,19 -43,32 -1,2 -2,3 -4,5 -5,6 -9,15 -11,22 -1,3 -2,11 -4,13l17 19c1,1 1,1 2,2l6 5c1,1 1,1 2,2 1,1 1,1 2,2 8,6 21,16 30,20 2,1 3,2 5,3 28,14 57,22 87,22l10 0c15,0 31,-2 47,-6 25,-6 56,-21 77,-39l8 -7c3,-2 14,-14 18,-18 1,-1 1,-1 2,-2 1,-1 1,-1 2,-2 -2,-5 -2,-9 -3,-14 -5,-17 -15,-29 -28,-39 -14,-12 -36,-24 -55,-29 -4,-1 -4,-1 -6,1 -17,15 -39,27 -65,27 -19,0 -38,-7 -51,-16z"/>
   </g>
  </g>
  <path class="fil1 str0" d="M214 6c115,0 208,93 208,208 0,115 -93,208 -208,208 -115,0 -208,-93 -208,-208 0,-115 93,-208 208,-208z"/>
 </g>
</svg>
