<svg width="20" height="14" viewBox="0 0 20 14" id="img" xmlns="http://www.w3.org/2000/svg">
<path d="M7.56896 13.8191C7.37896 13.8191 7.18896 13.7491 7.03896 13.5991L0.968965 7.52914C0.678965 7.23914 0.678965 6.75914 0.968965 6.46914L7.03896 0.399141C7.32896 0.109141 7.80897 0.109141 8.09897 0.399141C8.38897 0.689141 8.38897 1.16914 8.09897 1.45914L2.55896 6.99914L8.09897 12.5391C8.38897 12.8291 8.38897 13.3091 8.09897 13.5991C7.95897 13.7491 7.75896 13.8191 7.56896 13.8191Z" />
<path d="M18.4989 7.74902H1.66895C1.25895 7.74902 0.918945 7.40902 0.918945 6.99902C0.918945 6.58902 1.25895 6.24902 1.66895 6.24902L18.4989 6.24902C18.9089 6.24902 19.2489 6.58902 19.2489 6.99902C19.2489 7.40902 18.9089 7.74902 18.4989 7.74902Z" />
</svg>
