<svg width="20" height="14" viewBox="0 0 20 14" id="img" xmlns="http://www.w3.org/2000/svg">
<path d="M12.4315 0.181348C12.6215 0.181348 12.8115 0.251348 12.9615 0.401347L19.0315 6.47135C19.3215 6.76135 19.3215 7.24135 19.0315 7.53135L12.9615 13.6013C12.6715 13.8913 12.1915 13.8913 11.9015 13.6013C11.6115 13.3113 11.6115 12.8313 11.9015 12.5413L17.4415 7.00135L11.9015 1.46135C11.6115 1.17135 11.6115 0.691347 11.9015 0.401347C12.0415 0.251348 12.2415 0.181348 12.4315 0.181348Z" />
<path d="M1.50203 6.25146L18.332 6.25146C18.742 6.25146 19.082 6.59146 19.082 7.00146C19.082 7.41146 18.742 7.75146 18.332 7.75146L1.50203 7.75146C1.09203 7.75146 0.752031 7.41146 0.752031 7.00146C0.752031 6.59146 1.09203 6.25146 1.50203 6.25146Z" />
</svg>
