<svg id="img" fill="currentColor" xmlns="http://www.w3.org/2000/svg">
<path d="M9 17.0596C8.775 17.0596 8.55 17.0071 8.3625 16.9021C6.96 16.1371 4.4925 15.3271 2.9475 15.1246L2.73 15.0946C1.7475 14.9746 0.9375 14.0521 0.9375 13.0546V3.99464C0.9375 3.40214 1.17 2.86214 1.5975 2.47214C2.025 2.08214 2.58 1.89464 3.165 1.94714C4.815 2.07464 7.305 2.89964 8.715 3.78464L8.895 3.88964C8.9475 3.91964 9.06 3.91964 9.105 3.89714L9.225 3.82214C10.635 2.93714 13.125 2.09714 14.7825 1.95464C14.7975 1.95464 14.8575 1.95464 14.8725 1.95464C15.42 1.90214 15.9825 2.09714 16.4025 2.48714C16.83 2.87714 17.0625 3.41714 17.0625 4.00964V13.0621C17.0625 14.0671 16.2525 14.9821 15.2625 15.1021L15.015 15.1321C13.47 15.3346 10.995 16.1521 9.6225 16.9096C9.4425 17.0146 9.225 17.0596 9 17.0596ZM2.985 3.06464C2.745 3.06464 2.5275 3.14714 2.355 3.30464C2.1675 3.47714 2.0625 3.72464 2.0625 3.99464V13.0546C2.0625 13.4971 2.445 13.9246 2.8725 13.9846L3.0975 14.0146C4.785 14.2396 7.3725 15.0871 8.8725 15.9046C8.94 15.9346 9.0375 15.9421 9.075 15.9271C10.575 15.0946 13.1775 14.2396 14.8725 14.0146L15.1275 13.9846C15.555 13.9321 15.9375 13.4971 15.9375 13.0546V4.00214C15.9375 3.72464 15.8325 3.48464 15.645 3.30464C15.45 3.13214 15.2025 3.04964 14.925 3.06464C14.91 3.06464 14.85 3.06464 14.835 3.06464C13.4025 3.19214 11.0925 3.96464 9.8325 4.75214L9.7125 4.83464C9.3 5.08964 8.715 5.08964 8.3175 4.84214L8.1375 4.73714C6.855 3.94964 4.545 3.18464 3.075 3.06464C3.045 3.06464 3.015 3.06464 2.985 3.06464Z" />
<path d="M9 16.4302C8.6925 16.4302 8.4375 16.1752 8.4375 15.8677V4.61768C8.4375 4.31018 8.6925 4.05518 9 4.05518C9.3075 4.05518 9.5625 4.31018 9.5625 4.61768V15.8677C9.5625 16.1827 9.3075 16.4302 9 16.4302Z" />
<path d="M5.8125 7.43018H4.125C3.8175 7.43018 3.5625 7.17518 3.5625 6.86768C3.5625 6.56018 3.8175 6.30518 4.125 6.30518H5.8125C6.12 6.30518 6.375 6.56018 6.375 6.86768C6.375 7.17518 6.12 7.43018 5.8125 7.43018Z" />
<path d="M6.375 9.68018H4.125C3.8175 9.68018 3.5625 9.42518 3.5625 9.11768C3.5625 8.81018 3.8175 8.55518 4.125 8.55518H6.375C6.6825 8.55518 6.9375 8.81018 6.9375 9.11768C6.9375 9.42518 6.6825 9.68018 6.375 9.68018Z" />
</svg>
