<svg id='img' xmlns="http://www.w3.org/2000/svg">
<path d="M7 6.75C6.59 6.75 6.25 6.41 6.25 6V3C6.25 2.59 6.59 2.25 7 2.25C7.41 2.25 7.75 2.59 7.75 3V6C7.75 6.41 7.41 6.75 7 6.75Z"/>
<path d="M15 6.75C14.59 6.75 14.25 6.41 14.25 6V3C14.25 2.59 14.59 2.25 15 2.25C15.41 2.25 15.75 2.59 15.75 3V6C15.75 6.41 15.41 6.75 15 6.75Z"/>
<path d="M14 12.75H6C5.59 12.75 5.25 12.41 5.25 12C5.25 11.59 5.59 11.25 6 11.25H14C14.41 11.25 14.75 11.59 14.75 12C14.75 12.41 14.41 12.75 14 12.75Z"/>
<path d="M11 16.75H6C5.59 16.75 5.25 16.41 5.25 16C5.25 15.59 5.59 15.25 6 15.25H11C11.41 15.25 11.75 15.59 11.75 16C11.75 16.41 11.41 16.75 11 16.75Z"/>
<path d="M14 23.75H8C2.38 23.75 1.25 21.1 1.25 16.82V10.65C1.25 5.91 2.85 3.98 6.96 3.75H15C19.15 3.98 20.75 5.91 20.75 10.65V17C20.75 17.41 20.41 17.75 20 17.75C19.59 17.75 19.25 17.41 19.25 17V10.65C19.25 6.29 17.8 5.41 14.96 5.25H7C4.2 5.41 2.75 6.29 2.75 10.65V16.82C2.75 20.65 3.48 22.25 8 22.25H14C14.41 22.25 14.75 22.59 14.75 23C14.75 23.41 14.41 23.75 14 23.75Z"/>
<path d="M14 23.75C13.9 23.75 13.81 23.73 13.71 23.69C13.43 23.57 13.25 23.3 13.25 23V20C13.25 17.58 14.58 16.25 17 16.25H20C20.3 16.25 20.58 16.43 20.69 16.71C20.81 16.99 20.74 17.31 20.53 17.53L14.53 23.53C14.39 23.67 14.2 23.75 14 23.75ZM17 17.75C15.42 17.75 14.75 18.42 14.75 20V21.19L18.19 17.75H17Z"/>
</svg>
