<svg width="18" height="18" viewBox="0 0 18 18" id="img" xmlns="http://www.w3.org/2000/svg">
<path d="M4.15548 14.6402C3.69798 14.6402 3.27048 14.4827 2.96298 14.1902C2.57298 13.8227 2.38548 13.2677 2.45298 12.6677L2.73048 10.2377C2.78298 9.78016 3.06048 9.17266 3.38298 8.84266L9.54048 2.32516C11.078 0.697659 12.683 0.652659 14.3105 2.19016C15.938 3.72766 15.983 5.33266 14.4455 6.96016L8.28798 13.4777C7.97298 13.8152 7.38798 14.1302 6.93048 14.2052L4.51548 14.6177C4.38798 14.6252 4.27548 14.6402 4.15548 14.6402ZM11.948 2.18266C11.3705 2.18266 10.868 2.54266 10.358 3.08266L4.20048 9.60766C4.05048 9.76516 3.87798 10.1402 3.84798 10.3577L3.57048 12.7877C3.54048 13.0352 3.60048 13.2377 3.73548 13.3652C3.87048 13.4927 4.07298 13.5377 4.32048 13.5002L6.73548 13.0877C6.95298 13.0502 7.31298 12.8552 7.46298 12.6977L13.6205 6.18016C14.5505 5.19016 14.888 4.27516 13.5305 3.00016C12.9305 2.42266 12.413 2.18266 11.948 2.18266Z" />
<path d="M13.0063 8.21263C12.9913 8.21263 12.9688 8.21263 12.9538 8.21263C10.6138 7.98013 8.7313 6.20263 8.3713 3.87763C8.3263 3.57013 8.5363 3.28513 8.8438 3.23263C9.1513 3.18763 9.4363 3.39763 9.4888 3.70513C9.7738 5.52013 11.2438 6.91513 13.0738 7.09513C13.3813 7.12513 13.6063 7.40263 13.5763 7.71013C13.5388 7.99513 13.2913 8.21263 13.0063 8.21263Z" />
<path d="M15.75 17.0625H2.25C1.9425 17.0625 1.6875 16.8075 1.6875 16.5C1.6875 16.1925 1.9425 15.9375 2.25 15.9375H15.75C16.0575 15.9375 16.3125 16.1925 16.3125 16.5C16.3125 16.8075 16.0575 17.0625 15.75 17.0625Z" />
</svg>
