<svg id="img" xmlns="http://www.w3.org/2000/svg">
<path d="M1.74973 15.26V8.73998C1.74973 3.82998 3.84973 1.72998 8.75973 1.72998H8.88973C13.3297 1.72998 15.4697 3.47998 15.8397 7.39998C15.8697 7.79998 15.5697 8.17998 15.1597 8.21998C14.7497 8.25998 14.3797 7.95998 14.3397 7.53998C14.0497 4.39998 12.5697 3.22998 8.87973 3.22998H8.74973C4.67973 3.22998 3.23973 4.66998 3.23973 8.73998V15.26C3.23973 19.33 4.67973 20.77 8.74973 20.77H8.87973C12.5897 20.77 14.0697 19.58 14.3397 16.38C14.3797 15.97 14.7397 15.66 15.1497 15.7C15.5597 15.74 15.8697 16.09 15.8297 16.51C15.4897 20.49 13.3397 22.27 8.86973 22.27H8.73973C3.84973 22.27 1.74973 20.17 1.74973 15.26Z"/>
<path d="M8.24988 12C8.24988 11.59 8.58988 11.25 8.99988 11.25H20.3799C20.7899 11.25 21.1299 11.59 21.1299 12C21.1299 12.41 20.7899 12.75 20.3799 12.75H8.99988C8.58988 12.75 8.24988 12.41 8.24988 12Z"/>
<path d="M17.3996 15.3498C17.3996 15.1598 17.4696 14.9698 17.6196 14.8198L20.4396 11.9998L17.6196 9.17984C17.3296 8.88984 17.3296 8.40984 17.6196 8.11984C17.9096 7.82984 18.3896 7.82984 18.6796 8.11984L22.0296 11.4698C22.3196 11.7598 22.3196 12.2398 22.0296 12.5298L18.6796 15.8798C18.3896 16.1698 17.9096 16.1698 17.6196 15.8798C17.4696 15.7398 17.3996 15.5398 17.3996 15.3498Z"/>
</svg>
