<svg width="36" height="36" viewBox="0 0 36 36" fill="none" xmlns="http://www.w3.org/2000/svg">
<g clip-path="url(#clip0_356_3758)">
<path d="M33.0988 13.2233L31.5432 14.7965L17.9093 1.3108C17.4921 0.89845 16.9283 0.668606 16.3418 0.671787C15.7552 0.674968 15.1939 0.910914 14.7812 1.32776C15.6065 0.494288 16.729 0.0225403 17.9019 0.0161785C19.0748 0.00981665 20.2023 0.469361 21.0366 1.29384L33.0988 13.2233Z" fill="#6246EA"/>
<path d="M34.7101 14.7943L19.6313 30.0391L18.0322 28.457L34.6556 11.6537L24.2035 1.31229C23.7854 0.898762 23.2208 0.667432 22.6328 0.668814C22.0448 0.670196 21.4812 0.904177 21.0651 1.31966L21.0762 1.3086C21.4833 0.896756 21.9677 0.569171 22.5015 0.344563C23.0353 0.119956 23.6081 0.00272774 24.1872 -0.000423033C24.7663 -0.0035738 25.3404 0.107415 25.8766 0.3262C26.4128 0.544986 26.9007 0.867282 27.3123 1.27467L34.6755 8.55595C35.2141 9.08624 35.6065 9.74687 35.8143 10.4736C36.0298 11.2264 36.0409 12.023 35.8465 12.7815C35.652 13.5399 35.259 14.2329 34.7079 14.7891L34.7101 14.7943Z" fill="#6246EA"/>
<path d="M34.6549 11.6534L33.0986 13.2259L21.0645 1.31931C21.4805 0.903826 22.0441 0.669845 22.6321 0.668463C23.2201 0.667081 23.7848 0.898411 24.2028 1.31194L34.6549 11.6534Z" fill="url(#paint0_linear_356_3758)"/>
<path d="M19.5093 2.89373L17.9531 4.4668L29.9871 16.3712L31.5432 14.7981L19.5093 2.89373Z" fill="url(#paint1_linear_356_3758)"/>
<path d="M13.2238 2.90088L14.797 4.45715L1.31129 18.0911C0.898938 18.5083 0.669095 19.0721 0.672276 19.6586C0.675457 20.2452 0.911402 20.8065 1.32825 21.2191C0.494776 20.3938 0.0230286 19.2714 0.0166667 18.0985C0.0103049 16.9256 0.469849 15.7981 1.29433 14.9638L13.2238 2.90088Z" fill="#6246EA"/>
<path d="M14.7948 1.29085L30.0396 16.3697L28.4575 17.9688L11.6542 1.34543L1.31278 11.8012C0.89925 12.2192 0.667921 12.7839 0.669303 13.3719C0.670684 13.9599 0.904665 14.5235 1.32015 14.9396L1.30909 14.9285C0.897244 14.5213 0.569659 14.037 0.345052 13.5032C0.120444 12.9694 0.00321602 12.3966 6.52486e-05 11.8175C-0.00308552 11.2383 0.107903 10.6643 0.326689 10.128C0.545475 9.59182 0.86777 9.10397 1.27516 8.69235L8.55644 1.32773C9.08677 0.789265 9.74741 0.397201 10.4741 0.189658C11.2384 -0.0285986 12.0473 -0.0370062 12.8159 0.165318C13.5632 0.359498 14.2459 0.747793 14.7948 1.29085V1.29085Z" fill="#6246EA"/>
<path d="M11.6539 1.34521L13.2264 2.90075L1.3198 14.9357C0.904314 14.5196 0.670333 13.956 0.668951 13.368C0.66757 12.78 0.898899 12.2153 1.31243 11.7973L11.6539 1.34521Z" fill="url(#paint2_linear_356_3758)"/>
<path d="M14.797 4.45777L2.89258 16.4917L4.46564 18.0478L16.37 6.0139L14.797 4.45777Z" fill="url(#paint3_linear_356_3758)"/>
<path d="M2.90137 22.7759L4.45764 21.2026L18.0916 34.6883C18.5086 35.1009 19.0723 35.331 19.6588 35.3281C20.2454 35.3252 20.8068 35.0895 21.2196 34.6729C20.3944 35.5064 19.2721 35.9783 18.0991 35.9848C16.9262 35.9913 15.7987 35.5319 14.9643 34.7075L2.90137 22.7759Z" fill="#6246EA"/>
<path d="M1.29099 21.205L16.3698 5.96094L17.9689 7.54302L1.34557 24.3493L11.8013 34.6878C12.2194 35.1014 12.7841 35.3327 13.3722 35.3312C13.9603 35.3297 14.5238 35.0954 14.9397 34.6797L14.9286 34.6907C14.5216 35.1027 14.0373 35.4304 13.5035 35.6552C12.9697 35.8799 12.3969 35.9972 11.8177 36.0004C11.2386 36.0036 10.6645 35.8927 10.1282 35.6739C9.59199 35.4551 9.10411 35.1328 8.69249 34.7254L1.32787 27.4419C0.787677 26.9107 0.394534 26.2484 0.186846 25.5198C-0.0286629 24.7669 -0.0397659 23.9702 0.154678 23.2116C0.349123 22.453 0.742098 21.7599 1.2932 21.2035L1.29099 21.205Z" fill="#6246EA"/>
<path d="M1.3457 24.3491L2.90124 22.7759L14.9361 34.6795C14.5203 35.0953 13.9567 35.3295 13.3686 35.331C12.7806 35.3325 12.2158 35.1012 11.7978 34.6876L1.3457 24.3491Z" fill="url(#paint4_linear_356_3758)"/>
<path d="M6.01316 19.6315L4.45703 21.2046L16.491 33.109L18.0471 31.5359L6.01316 19.6315Z" fill="url(#paint5_linear_356_3758)"/>
<path d="M22.7764 33.0983L21.2031 31.5428L34.6888 17.9088C35.1014 17.4918 35.3315 16.9281 35.3286 16.3416C35.3257 15.755 35.09 15.1936 34.6733 14.7808C35.5069 15.606 35.9788 16.7283 35.9853 17.9012C35.9918 19.0742 35.5324 20.2017 34.708 21.0361L22.7764 33.0983Z" fill="#6246EA"/>
<path d="M21.206 34.7092L5.96191 19.6303L7.544 18.0312L24.3502 34.6546L34.6887 24.2025C35.1024 23.7845 35.3337 23.2197 35.3322 22.6316C35.3306 22.0436 35.0964 21.48 34.6806 21.0641L34.6917 21.0752C35.1037 21.4823 35.4314 21.9665 35.6561 22.5003C35.8809 23.0341 35.9982 23.6069 36.0014 24.1861C36.0046 24.7652 35.8937 25.3393 35.6749 25.8756C35.4561 26.4118 35.1338 26.8997 34.7264 27.3113L27.4429 34.6745C26.9126 35.2132 26.252 35.6055 25.5252 35.8133C24.7723 36.0288 23.9756 36.0399 23.217 35.8455C22.4584 35.651 21.7653 35.258 21.2089 34.7069L21.206 34.7092Z" fill="#6246EA"/>
<path d="M24.3496 34.6544L22.7764 33.0981L34.68 21.064C35.0958 21.4799 35.33 22.0434 35.3315 22.6315C35.333 23.2195 35.1017 23.7843 34.6881 24.2023L24.3496 34.6544Z" fill="url(#paint6_linear_356_3758)"/>
<path d="M31.5353 17.9544L19.6309 29.9883L21.2039 31.5444L33.1083 19.5105L31.5353 17.9544Z" fill="url(#paint7_linear_356_3758)"/>
</g>
<defs>
<linearGradient id="paint0_linear_356_3758" x1="21.8421" y1="0.532846" x2="33.876" y2="12.4373" gradientUnits="userSpaceOnUse">
<stop stop-color="white" stop-opacity="0"/>
<stop offset="1"/>
</linearGradient>
<linearGradient id="paint1_linear_356_3758" x1="18.7312" y1="3.68027" x2="30.7651" y2="15.5847" gradientUnits="userSpaceOnUse">
<stop stop-color="white" stop-opacity="0"/>
<stop offset="1"/>
</linearGradient>
<linearGradient id="paint2_linear_356_3758" x1="0.533334" y1="14.158" x2="12.4377" y2="2.12409" gradientUnits="userSpaceOnUse">
<stop stop-color="white" stop-opacity="0"/>
<stop offset="1"/>
</linearGradient>
<linearGradient id="paint3_linear_356_3758" x1="3.67911" y1="17.2698" x2="15.5835" y2="5.23584" gradientUnits="userSpaceOnUse">
<stop stop-color="white" stop-opacity="0"/>
<stop offset="1"/>
</linearGradient>
<linearGradient id="paint4_linear_356_3758" x1="14.1585" y1="35.4667" x2="2.12458" y2="23.5623" gradientUnits="userSpaceOnUse">
<stop stop-color="white" stop-opacity="0"/>
<stop offset="1"/>
</linearGradient>
<linearGradient id="paint5_linear_356_3758" x1="17.269" y1="32.3225" x2="5.2351" y2="20.4181" gradientUnits="userSpaceOnUse">
<stop stop-color="white" stop-opacity="0"/>
<stop offset="1"/>
</linearGradient>
<linearGradient id="paint6_linear_356_3758" x1="35.4672" y1="21.8416" x2="23.5628" y2="33.8755" gradientUnits="userSpaceOnUse">
<stop stop-color="white" stop-opacity="0"/>
<stop offset="1"/>
</linearGradient>
<linearGradient id="paint7_linear_356_3758" x1="32.3218" y1="18.7324" x2="20.4174" y2="30.7663" gradientUnits="userSpaceOnUse">
<stop stop-color="white" stop-opacity="0"/>
<stop offset="1"/>
</linearGradient>
<clipPath id="clip0_356_3758">
<rect width="36" height="36" fill="white"/>
</clipPath>
</defs>
</svg>
