<svg width="25" height="24" viewBox="0 0 25 24" id="img" xmlns="http://www.w3.org/2000/svg">
<path d="M16.8799 22.7502H3.73993C2.78993 22.7502 1.90993 22.3103 1.33993 21.5403C0.759932 20.7603 0.58994 19.7802 0.87994 18.8502L5.08993 5.32019C5.46993 4.06019 6.62995 3.2002 7.94995 3.2002H20.2499C21.4599 3.2002 22.5499 3.92028 23.0099 5.04028C23.2599 5.62028 23.3099 6.2803 23.1599 6.9303L19.7899 20.4602C19.4699 21.8102 18.2699 22.7502 16.8799 22.7502ZM7.95993 4.71021C7.30993 4.71021 6.71993 5.14026 6.52993 5.77026L2.31994 19.3003C2.17994 19.7703 2.25993 20.2603 2.55993 20.6603C2.83993 21.0403 3.27994 21.2603 3.74994 21.2603H16.8899C17.58 21.2603 18.1799 20.7902 18.3399 20.1202L21.7099 6.5802C21.7899 6.2502 21.7699 5.92025 21.6399 5.63025C21.4 5.06025 20.8699 4.7002 20.2599 4.7002H7.95993V4.71021Z"/>
<path d="M21.28 22.75H16.5C16.09 22.75 15.75 22.41 15.75 22C15.75 21.59 16.09 21.25 16.5 21.25H21.28C21.69 21.25 22.07 21.08 22.35 20.78C22.63 20.48 22.77 20.08 22.74 19.67L21.75 6.05002C21.72 5.64002 22.03 5.27997 22.44 5.24997C22.85 5.22997 23.21 5.52991 23.24 5.93991L24.23 19.56C24.29 20.38 24 21.2 23.44 21.8C22.89 22.41 22.1 22.75 21.28 22.75Z"/>
<path d="M10.1798 7.12971C10.1198 7.12971 10.0598 7.11969 9.99977 7.10969C9.59977 7.00969 9.34979 6.60966 9.44979 6.19966L10.4898 1.87971C10.5898 1.47971 10.9898 1.22966 11.3998 1.32966C11.7998 1.42966 12.0498 1.8297 11.9498 2.2397L10.9098 6.55977C10.8298 6.89977 10.5198 7.12971 10.1798 7.12971Z"/>
<path d="M16.8795 7.13974C16.8295 7.13974 16.7694 7.13972 16.7194 7.11972C16.3194 7.02972 16.0595 6.62971 16.1395 6.22971L17.0794 1.88974C17.1694 1.47974 17.5694 1.22979 17.9694 1.30979C18.3694 1.38979 18.6294 1.79968 18.5494 2.19968L17.6094 6.53977C17.5394 6.89977 17.2295 7.13974 16.8795 7.13974Z"/>
<path d="M16.2002 12.75H8.2002C7.7902 12.75 7.4502 12.41 7.4502 12C7.4502 11.59 7.7902 11.25 8.2002 11.25H16.2002C16.6102 11.25 16.9502 11.59 16.9502 12C16.9502 12.41 16.6102 12.75 16.2002 12.75Z"/>
<path d="M15.2002 16.75H7.2002C6.7902 16.75 6.4502 16.41 6.4502 16C6.4502 15.59 6.7902 15.25 7.2002 15.25H15.2002C15.6102 15.25 15.9502 15.59 15.9502 16C15.9502 16.41 15.6102 16.75 15.2002 16.75Z"/>
</svg>
