<svg id="img" xmlns="http://www.w3.org/2000/svg">
<path d="M9.84484 17.5626C9.71734 17.5626 9.58984 17.5626 9.46234 17.5551C5.26234 17.3676 1.75234 13.9851 1.45984 9.86008C1.20484 6.32009 3.25234 3.01259 6.55234 1.62509C7.48984 1.23509 7.98484 1.53509 8.19484 1.75259C8.40484 1.96259 8.69734 2.45009 8.30734 3.34259C7.96234 4.13759 7.78984 4.98509 7.79734 5.85509C7.81234 9.17759 10.5723 11.9976 13.9398 12.1326C14.4273 12.1551 14.9073 12.1176 15.3723 12.0351C16.3623 11.8551 16.7748 12.2526 16.9323 12.5076C17.0898 12.7626 17.2698 13.3101 16.6698 14.1201C15.0798 16.2951 12.5523 17.5626 9.84484 17.5626ZM2.57734 9.77759C2.83234 13.3476 5.87734 16.2726 9.50734 16.4301C11.9748 16.5501 14.3148 15.4251 15.7548 13.4601C15.8673 13.3026 15.9198 13.1901 15.9423 13.1301C15.8748 13.1226 15.7548 13.1151 15.5673 13.1526C15.0198 13.2501 14.4498 13.2876 13.8873 13.2651C9.92734 13.1076 6.68734 9.78508 6.66484 5.87009C6.66484 4.83509 6.86734 3.83759 7.27984 2.90009C7.35484 2.73509 7.36984 2.62259 7.37734 2.56259C7.30984 2.56259 7.18984 2.57759 6.99484 2.66009C4.13734 3.86009 2.36734 6.72509 2.57734 9.77759Z" />
</svg>
