<svg width="18" height="19" viewBox="0 0 18 19" id='img' fill="none" xmlns="http://www.w3.org/2000/svg">
<path d="M9 5.33008V7.82758" stroke="currentColor" stroke-width="1.5" stroke-miterlimit="10" stroke-linecap="round"/>
<path d="M9.01517 2C6.25517 2 4.02017 4.235 4.02017 6.995V8.57C4.02017 9.08 3.81017 9.845 3.54767 10.28L2.59517 11.87C2.01017 12.8525 2.41517 13.9475 3.49517 14.3075C7.08017 15.5 10.9577 15.5 14.5427 14.3075C15.5552 13.97 15.9902 12.785 15.4427 11.87L14.4902 10.28C14.2277 9.845 14.0177 9.0725 14.0177 8.57V6.995C14.0102 4.25 11.7602 2 9.01517 2Z" stroke="currentColor" stroke-width="1.5" stroke-miterlimit="10" stroke-linecap="round"/>
<path d="M11.497 14.6152C11.497 15.9877 10.372 17.1127 8.99945 17.1127C8.31695 17.1127 7.68695 16.8277 7.23695 16.3777C6.78695 15.9277 6.50195 15.2977 6.50195 14.6152" stroke="currentColor" stroke-width="1.5" stroke-miterlimit="10"/>
</svg>
