<svg width="36" height="36" viewBox="0 0 36 36" fill="white" xmlns="http://www.w3.org/2000/svg">
<path d="M30.375 5.625H5.625C5.02826 5.625 4.45597 5.86205 4.03401 6.28401C3.61205 6.70597 3.375 7.27826 3.375 7.875V28.125C3.375 28.7217 3.61205 29.294 4.03401 29.716C4.45597 30.1379 5.02826 30.375 5.625 30.375H7.50937C7.7224 30.3756 7.9311 30.3149 8.11062 30.2002C8.29013 30.0856 8.43289 29.9217 8.52187 29.7281C9.07232 28.5761 9.93757 27.6035 11.0176 26.9226C12.0976 26.2416 13.3483 25.8803 14.625 25.8803C15.9017 25.8803 17.1524 26.2416 18.2324 26.9226C19.3124 27.6035 20.1777 28.5761 20.7281 29.7281C20.8171 29.9217 20.9599 30.0856 21.1394 30.2002C21.3189 30.3149 21.5276 30.3756 21.7406 30.375H30.375C30.9717 30.375 31.544 30.1379 31.966 29.716C32.3879 29.294 32.625 28.7217 32.625 28.125V7.875C32.625 7.27826 32.3879 6.70597 31.966 6.28401C31.544 5.86205 30.9717 5.625 30.375 5.625V5.625ZM11.25 20.25C11.25 19.5825 11.4479 18.93 11.8188 18.375C12.1896 17.8199 12.7167 17.3874 13.3334 17.1319C13.9501 16.8765 14.6287 16.8096 15.2834 16.9398C15.9381 17.0701 16.5395 17.3915 17.0115 17.8635C17.4835 18.3355 17.8049 18.9369 17.9351 19.5916C18.0654 20.2463 17.9985 20.9249 17.7431 21.5416C17.4876 22.1583 17.0551 22.6854 16.5 23.0562C15.945 23.4271 15.2925 23.625 14.625 23.625C13.731 23.6213 12.8747 23.2645 12.2426 22.6324C11.6105 22.0003 11.2537 21.144 11.25 20.25ZM30.375 28.125H22.4156C21.4766 26.5096 20.0624 25.223 18.3656 24.4406C19.2172 23.6823 19.8183 22.6831 20.0891 21.5755C20.3599 20.4678 20.2876 19.304 19.882 18.2384C19.4763 17.1727 18.7563 16.2555 17.8175 15.6083C16.8786 14.9612 15.7653 14.6146 14.625 14.6146C13.4847 14.6146 12.3714 14.9612 11.4325 15.6083C10.4937 16.2555 9.77373 17.1727 9.36804 18.2384C8.96236 19.304 8.89013 20.4678 9.16093 21.5755C9.43173 22.6831 10.0328 23.6823 10.8844 24.4406C9.1876 25.223 7.77335 26.5096 6.83437 28.125H5.625V7.875H30.375V28.125ZM7.875 13.5V11.25C7.875 10.9516 7.99353 10.6655 8.2045 10.4545C8.41548 10.2435 8.70163 10.125 9 10.125H27C27.2984 10.125 27.5845 10.2435 27.7955 10.4545C28.0065 10.6655 28.125 10.9516 28.125 11.25V24.75C28.125 25.0484 28.0065 25.3345 27.7955 25.5455C27.5845 25.7565 27.2984 25.875 27 25.875H24.75C24.4516 25.875 24.1655 25.7565 23.9545 25.5455C23.7435 25.3345 23.625 25.0484 23.625 24.75C23.625 24.4516 23.7435 24.1655 23.9545 23.9545C24.1655 23.7435 24.4516 23.625 24.75 23.625H25.875V12.375H10.125V13.5C10.125 13.7984 10.0065 14.0845 9.79549 14.2955C9.58452 14.5065 9.29837 14.625 9 14.625C8.70163 14.625 8.41548 14.5065 8.2045 14.2955C7.99353 14.0845 7.875 13.7984 7.875 13.5Z"/>
</svg>
