<svg width="36" height="36" viewBox="0 0 36 36" fill="white" xmlns="http://www.w3.org/2000/svg">
<path d="M31.8513 7.93178L18.3513 3.43178C18.1222 3.36128 17.8772 3.36128 17.6482 3.43178L4.16222 7.93178H4.1341L3.99347 8.00209H3.97941L3.83879 8.08646C3.83879 8.10053 3.82472 8.10053 3.81066 8.11459L3.69816 8.21303L3.59972 8.32553C3.59972 8.33959 3.58566 8.33959 3.58566 8.35365L3.50129 8.48021C3.50129 8.49428 3.50129 8.49428 3.48722 8.50834L3.43097 8.6349L3.38879 8.78959V8.83178C3.37492 8.88688 3.37017 8.94389 3.37472 9.00053V20.2505C3.37472 20.5489 3.49325 20.835 3.70423 21.046C3.91521 21.257 4.20136 21.3755 4.49972 21.3755C4.79809 21.3755 5.08424 21.257 5.29522 21.046C5.5062 20.835 5.62472 20.5489 5.62472 20.2505V10.5615L10.3497 12.1365C9.46204 13.5573 8.99405 15.2002 8.99972 16.8755C9.00024 18.3992 9.38759 19.8978 10.1255 21.2309C10.8633 22.564 11.9276 23.6879 13.2185 24.4974C10.5359 25.5122 8.24577 27.3542 6.67941 29.7568C6.51976 30.0093 6.46567 30.3143 6.52879 30.6063C6.59192 30.8983 6.76722 31.1538 7.01691 31.3177C7.13945 31.3989 7.27688 31.455 7.42124 31.4827C7.56559 31.5104 7.71401 31.5091 7.85789 31.479C8.00177 31.449 8.13825 31.3906 8.25942 31.3074C8.38059 31.2242 8.48405 31.1178 8.56379 30.9943C9.5849 29.4214 10.983 28.1287 12.631 27.2338C14.2789 26.3389 16.1245 25.8701 17.9997 25.8701C19.875 25.8701 21.7205 26.3389 23.3685 27.2338C25.0164 28.1287 26.4145 29.4214 27.4357 30.9943C27.5384 31.1502 27.6783 31.2782 27.8427 31.3665C28.0072 31.4549 28.1911 31.501 28.3779 31.5005C28.5934 31.5028 28.8044 31.439 28.9825 31.3177C29.2322 31.1538 29.4075 30.8983 29.4707 30.6063C29.5338 30.3143 29.4797 30.0093 29.32 29.7568C27.7537 27.3542 25.4635 25.5122 22.781 24.4974C24.0719 23.6879 25.1361 22.564 25.874 21.2309C26.6119 19.8978 26.9992 18.3992 26.9997 16.8755C27.0054 15.2002 26.5374 13.5573 25.6497 12.1365L31.8513 10.0693C32.0764 9.9953 32.2723 9.85215 32.4113 9.66024C32.5502 9.46833 32.625 9.23745 32.625 9.00053C32.625 8.7636 32.5502 8.53273 32.4113 8.34082C32.2723 8.14891 32.0764 8.00576 31.8513 7.93178V7.93178ZM24.7497 16.8755C24.7497 18.6657 24.0386 20.3826 22.7727 21.6485C21.5068 22.9144 19.7899 23.6255 17.9997 23.6255C16.2095 23.6255 14.4926 22.9144 13.2268 21.6485C11.9609 20.3826 11.2497 18.6657 11.2497 16.8755C11.2524 15.4352 11.7102 14.0325 12.5575 12.8677L17.6482 14.5693C17.8765 14.6444 18.1229 14.6444 18.3513 14.5693L23.4419 12.8677C24.2893 14.0325 24.747 15.4352 24.7497 16.8755ZM23.4419 10.5052H23.4279L17.9997 12.3193L12.5716 10.5052H12.5575L8.05754 9.00053L17.9997 5.68178L27.9419 9.00053L23.4419 10.5052Z"/>
</svg>
