<svg id="img" xmlns="http://www.w3.org/2000/svg">
<path d="M9.00098 14.937C6.00098 14.937 3.56348 12.4995 3.56348 9.49951C3.56348 6.49951 6.00098 4.06201 9.00098 4.06201C12.001 4.06201 14.4385 6.49951 14.4385 9.49951C14.4385 12.4995 12.001 14.937 9.00098 14.937ZM9.00098 5.18701C6.62348 5.18701 4.68848 7.12201 4.68848 9.49951C4.68848 11.877 6.62348 13.812 9.00098 13.812C11.3785 13.812 13.3135 11.877 13.3135 9.49951C13.3135 7.12201 11.3785 5.18701 9.00098 5.18701Z" />
<path d="M9.00098 17.7195C8.58848 17.7195 8.25098 17.412 8.25098 16.9995V16.9395C8.25098 16.527 8.58848 16.1895 9.00098 16.1895C9.41348 16.1895 9.75098 16.527 9.75098 16.9395C9.75098 17.352 9.41348 17.7195 9.00098 17.7195ZM14.356 15.6045C14.161 15.6045 13.9735 15.5295 13.8235 15.387L13.726 15.2895C13.4335 14.997 13.4335 14.5245 13.726 14.232C14.0185 13.9395 14.491 13.9395 14.7835 14.232L14.881 14.3295C15.1735 14.622 15.1735 15.0945 14.881 15.387C14.7385 15.5295 14.551 15.6045 14.356 15.6045ZM3.64598 15.6045C3.45098 15.6045 3.26348 15.5295 3.11348 15.387C2.82098 15.0945 2.82098 14.622 3.11348 14.3295L3.21098 14.232C3.50348 13.9395 3.97598 13.9395 4.26848 14.232C4.56098 14.5245 4.56098 14.997 4.26848 15.2895L4.17098 15.387C4.02848 15.5295 3.83348 15.6045 3.64598 15.6045ZM16.501 10.2495H16.441C16.0285 10.2495 15.691 9.91201 15.691 9.49951C15.691 9.08701 16.0285 8.74951 16.441 8.74951C16.8535 8.74951 17.221 9.08701 17.221 9.49951C17.221 9.91201 16.9135 10.2495 16.501 10.2495ZM1.56098 10.2495H1.50098C1.08848 10.2495 0.750977 9.91201 0.750977 9.49951C0.750977 9.08701 1.08848 8.74951 1.50098 8.74951C1.91348 8.74951 2.28098 9.08701 2.28098 9.49951C2.28098 9.91201 1.97348 10.2495 1.56098 10.2495ZM14.2585 4.99201C14.0635 4.99201 13.876 4.91701 13.726 4.77451C13.4335 4.48201 13.4335 4.00951 13.726 3.71701L13.8235 3.61951C14.116 3.32701 14.5885 3.32701 14.881 3.61951C15.1735 3.91201 15.1735 4.38451 14.881 4.67701L14.7835 4.77451C14.641 4.91701 14.4535 4.99201 14.2585 4.99201ZM3.74348 4.99201C3.54848 4.99201 3.36098 4.91701 3.21098 4.77451L3.11348 4.66951C2.82098 4.37701 2.82098 3.90451 3.11348 3.61201C3.40598 3.31951 3.87848 3.31951 4.17098 3.61201L4.26848 3.70951C4.56098 4.00201 4.56098 4.47451 4.26848 4.76701C4.12598 4.91701 3.93098 4.99201 3.74348 4.99201ZM9.00098 2.77951C8.58848 2.77951 8.25098 2.47201 8.25098 2.05951V1.99951C8.25098 1.58701 8.58848 1.24951 9.00098 1.24951C9.41348 1.24951 9.75098 1.58701 9.75098 1.99951C9.75098 2.41201 9.41348 2.77951 9.00098 2.77951Z" />
</svg>
