<svg width="19" height="18" viewBox="0 0 19 18" id="img" xmlns="http://www.w3.org/2000/svg">
<path d="M9.50016 9.5625H4.16016C3.85266 9.5625 3.59766 9.3075 3.59766 9V3.375C3.59766 2.235 4.52016 1.3125 5.66016 1.3125H9.50016C11.7727 1.3125 13.6252 3.165 13.6252 5.4375C13.6252 7.71 11.7727 9.5625 9.50016 9.5625ZM4.71516 8.4375H9.50016C11.1577 8.4375 12.5002 7.095 12.5002 5.4375C12.5002 3.78 11.1577 2.4375 9.50016 2.4375H5.66016C5.14266 2.4375 4.72266 2.8575 4.72266 3.375V8.4375H4.71516Z"/>
<path d="M11.2852 16.6875H5.66016C4.52016 16.6875 3.59766 15.765 3.59766 14.625V9C3.59766 8.6925 3.85266 8.4375 4.16016 8.4375H11.2852C13.5577 8.4375 15.4102 10.29 15.4102 12.5625C15.4102 14.835 13.5577 16.6875 11.2852 16.6875ZM4.71516 9.5625V14.625C4.71516 15.1425 5.13516 15.5625 5.65266 15.5625H11.2777C12.9352 15.5625 14.2777 14.22 14.2777 12.5625C14.2777 10.905 12.9352 9.5625 11.2777 9.5625H4.71516Z"/>
</svg>
