<svg width="19" height="18" viewBox="0 0 19 18" id="img" xmlns="http://www.w3.org/2000/svg">
<path d="M14.6602 2.8125H7.71516C7.40766 2.8125 7.16016 2.5575 7.16016 2.25C7.16016 1.9425 7.41516 1.6875 7.72266 1.6875H14.6602C14.9677 1.6875 15.2227 1.9425 15.2227 2.25C15.2227 2.5575 14.9677 2.8125 14.6602 2.8125Z"/>
<path d="M11.2848 16.3125H4.33984C4.03234 16.3125 3.77734 16.0575 3.77734 15.75C3.77734 15.4425 4.03234 15.1875 4.33984 15.1875H11.2773C11.5848 15.1875 11.8398 15.4425 11.8398 15.75C11.8398 16.0575 11.5923 16.3125 11.2848 16.3125Z"/>
<path d="M7.81208 16.3126C7.76708 16.3126 7.72208 16.3051 7.67708 16.2976C7.37708 16.2226 7.18958 15.9151 7.26458 15.6151L10.6396 2.11507C10.7146 1.81507 11.0146 1.62757 11.3221 1.70257C11.6221 1.77757 11.8096 2.08507 11.7346 2.38507L8.35958 15.8851C8.29208 16.1401 8.06708 16.3126 7.81208 16.3126Z"/>
</svg>
