<svg width="19" height="18" viewBox="0 0 19 18" id="img" xmlns="http://www.w3.org/2000/svg">
<path d="M14.75 16.3125H4.25C3.9425 16.3125 3.6875 16.0575 3.6875 15.75C3.6875 15.4425 3.9425 15.1875 4.25 15.1875H14.75C15.0575 15.1875 15.3125 15.4425 15.3125 15.75C15.3125 16.0575 15.0575 16.3125 14.75 16.3125Z"/>
<path d="M9.5 13.3125C6.2975 13.3125 3.6875 10.7025 3.6875 7.5V2.25C3.6875 1.9425 3.9425 1.6875 4.25 1.6875C4.5575 1.6875 4.8125 1.9425 4.8125 2.25V7.5C4.8125 10.0875 6.9125 12.1875 9.5 12.1875C12.0875 12.1875 14.1875 10.0875 14.1875 7.5V2.25C14.1875 1.9425 14.4425 1.6875 14.75 1.6875C15.0575 1.6875 15.3125 1.9425 15.3125 2.25V7.5C15.3125 10.7025 12.7025 13.3125 9.5 13.3125Z"/>
</svg>
